<svg preserveAspectRatio="none" width="100%" height="100%" overflow="visible" style="display: block;" viewBox="0 0 138.25 30.4189" fill="none" xmlns="http://www.w3.org/2000/svg">
<g id="Group 4">
<path id="Vector" d="M10.8583 8.52896H5.57617V29.8238H10.8583V8.52896Z" fill="var(--fill-0, #005BE2)"/>
<path id="Vector_2" d="M34.6479 13.6062C34.4012 12.6664 33.99 11.7622 33.4144 10.8952C32.8387 10.0283 32.0322 9.3106 30.9964 8.74568C29.9606 8.18075 28.6204 7.89829 26.9758 7.89829C24.9165 7.89829 23.2106 8.3513 21.8581 9.25909C21.2213 9.68544 20.6649 10.1775 20.1785 10.7282V8.52895H15.479V29.8238H20.8381V19.0174C20.8381 17.6903 20.9833 16.6244 21.2755 15.8232C21.5677 15.022 21.9386 14.4127 22.3918 13.9988C22.8449 13.5849 23.3296 13.3059 23.8474 13.1603C24.3653 13.0164 24.85 12.9435 25.3031 12.9435C26.4299 12.9435 27.2994 13.1994 27.9153 13.7128C28.5294 14.2262 28.9738 14.8639 29.245 15.626C29.5162 16.3882 29.6789 17.1485 29.7297 17.9035C29.7804 18.6603 29.8067 19.2803 29.8067 19.7671V29.8238H35.1657V17.8751C35.1657 17.5198 35.1395 16.9549 35.0888 16.1785C35.0363 15.4022 34.8876 14.5459 34.6426 13.6062H34.6479Z" fill="var(--fill-0, #005BE2)"/>
<path id="Vector_3" d="M47.3676 23.2774L42.3969 8.52896H37.1131L44.7257 29.8238H50.0095L57.6221 8.52896H52.34L47.3676 23.2774Z" fill="var(--fill-0, #005BE2)"/>
<path id="Vector_4" d="M74.226 9.5149C72.6845 8.46322 70.8142 7.93738 68.6132 7.93738C66.5416 7.93738 64.7098 8.41348 63.1176 9.36745C61.5255 10.3214 60.2762 11.6574 59.3699 13.3806C58.4636 15.102 58.0105 17.1272 58.0105 19.4544C58.0105 21.5844 58.4724 23.4746 59.3997 25.1232C60.3252 26.7736 61.6077 28.0686 63.2453 29.0084C64.883 29.9481 66.7761 30.4189 68.9264 30.4189C70.9454 30.4189 72.807 29.8789 74.5094 28.8023C76.2118 27.724 77.4575 26.2122 78.2483 24.2669L72.9662 22.7285C72.5778 23.5954 72.0144 24.2598 71.2761 24.7199C70.5378 25.18 69.6507 25.4092 68.6149 25.4092C66.9703 25.4092 65.7246 24.8674 64.876 23.7819C64.2549 22.9878 63.863 21.9521 63.6967 20.6766H78.4216C78.642 18.1007 78.3831 15.8588 77.6447 13.9526C76.9064 12.0464 75.7674 10.5684 74.226 9.51668V9.5149ZM68.8459 12.59C70.3873 12.59 71.4966 13.0661 72.1772 14.0201C72.6251 14.6472 72.9225 15.539 73.0765 16.6919H63.835C64.0432 15.706 64.3878 14.8941 64.8742 14.2564C65.7228 13.1461 67.0455 12.59 68.8459 12.59Z" fill="var(--fill-0, #005BE2)"/>
<path id="Vector_5" d="M100.169 13.6062C99.9226 12.6664 99.5114 11.7622 98.9358 10.8952C98.3602 10.0283 97.5536 9.3106 96.5178 8.74568C95.4821 8.18075 94.1419 7.89829 92.4972 7.89829C90.4379 7.89829 88.732 8.3513 87.3796 9.25909C86.7427 9.68544 86.1863 10.1775 85.6999 10.7282V8.52895H81.0005V29.8238H86.3595V19.0174C86.3595 17.6903 86.5048 16.6244 86.7969 15.8232C87.0891 15.022 87.4601 14.4127 87.9132 13.9988C88.3664 13.5849 88.851 13.3059 89.3689 13.1603C89.8868 13.0164 90.3714 12.9435 90.8246 12.9435C91.9513 12.9435 92.8209 13.1994 93.4368 13.7128C94.0509 14.2262 94.4953 14.8639 94.7665 15.626C95.0377 16.3882 95.2004 17.1485 95.2511 17.9035C95.3019 18.6603 95.3281 19.2803 95.3281 19.7671V29.8238H100.687V17.8751C100.687 17.5198 100.661 16.9549 100.61 16.1785C100.558 15.4022 100.409 14.5459 100.164 13.6062H100.169Z" fill="var(--fill-0, #005BE2)"/>
<path id="Vector_6" d="M111.103 2.61324H105.821V8.52897H102.248V12.67H105.821V20.7939C105.821 22.0694 105.833 23.2099 105.859 24.2154C105.885 25.2209 106.157 26.2104 106.675 27.1839C107.245 28.2232 108.076 28.9746 109.169 29.4419C110.263 29.9091 111.507 30.1578 112.898 30.1915C114.289 30.2235 115.711 30.1027 117.16 29.8274V25.3719C115.918 25.5425 114.784 25.5958 113.762 25.53C112.739 25.4643 111.995 25.0575 111.53 24.3078C111.283 23.9134 111.152 23.384 111.131 22.7196C111.112 22.0552 111.101 21.3091 111.101 20.4812V12.6735H117.16V8.53252H111.101V2.61324H111.103Z" fill="var(--fill-0, #005BE2)"/>
<path id="Vector_7" d="M138.134 14.1675C138.057 13.3788 137.811 12.59 137.396 11.8013C136.658 10.3818 135.571 9.38344 134.133 8.80431C132.697 8.22517 131.052 7.93738 129.201 7.93738C126.676 7.93738 124.682 8.48987 123.219 9.59307C121.756 10.698 120.759 12.1299 120.229 13.8922L125.005 15.4306C125.341 14.4571 125.931 13.7803 126.772 13.4001C127.614 13.0182 128.422 12.8281 129.199 12.8281C130.597 12.8281 131.594 13.1247 132.189 13.7145C132.656 14.1782 132.936 14.8515 133.038 15.7273C132.145 15.8623 131.299 15.9902 130.499 16.111C129.14 16.3153 127.922 16.5285 126.848 16.7523C125.773 16.9762 124.848 17.232 124.071 17.5216C122.944 17.9426 122.048 18.4649 121.382 19.0884C120.715 19.7138 120.232 20.4332 119.935 21.2469C119.637 22.0623 119.489 22.963 119.489 23.9489C119.489 25.1321 119.756 26.214 120.295 27.1928C120.832 28.1717 121.622 28.9551 122.664 29.5395C123.707 30.124 124.979 30.4171 126.48 30.4171C128.293 30.4171 129.79 30.0991 130.977 29.4614C131.911 28.9586 132.795 28.2054 133.627 27.207V29.8256H138.25V16.811C138.25 15.8374 138.211 14.9581 138.133 14.1693L138.134 14.1675ZM132.464 23.3573C132.322 23.6594 132.053 24.0342 131.657 24.4819C131.262 24.9295 130.732 25.3275 130.065 25.6757C129.399 26.0239 128.58 26.198 127.609 26.198C127 26.198 126.475 26.1056 126.036 25.9226C125.595 25.7379 125.255 25.4732 125.016 25.1232C124.776 24.775 124.657 24.3575 124.657 23.8708C124.657 23.5155 124.732 23.1939 124.881 22.9043C125.03 22.6148 125.262 22.3483 125.581 22.1049C125.898 21.8615 126.316 21.6359 126.834 21.4245C127.287 21.254 127.812 21.0959 128.407 20.952C129.001 20.8081 129.785 20.6464 130.756 20.4688C131.381 20.3551 132.128 20.2236 132.999 20.0744C132.989 20.4475 132.97 20.8685 132.942 21.3375C132.896 22.1067 132.737 22.78 132.466 23.3591L132.464 23.3573Z" fill="var(--fill-0, #005BE2)"/>
<path id="Vector_8" d="M11.9937 3.78489e-06C11.1294 1.16005 9.76119 1.91151 8.21802 1.91151C6.67486 1.91151 5.30665 1.16005 4.44059 3.78489e-06H5.28395e-05C1.1828 3.45706 4.41085 5.93883 8.21802 5.93883C12.0252 5.93883 15.2532 3.45706 16.436 3.78489e-06H11.9955H11.9937Z" fill="var(--fill-0, #005BE2)"/>
</g>
</svg>
