<svg width="200" height="44" viewBox="0 0 200 44" fill="none" xmlns="http://www.w3.org/2000/svg">
<path d="M15.6885 12.323H8.0567V43.0908H15.6885V12.323Z" fill="white"/>
<path d="M50.0609 19.6589C49.7045 18.3011 49.1104 16.9946 48.2787 15.742C47.447 14.4894 46.2816 13.4524 44.7851 12.6362C43.2885 11.82 41.3521 11.4119 38.9759 11.4119C36.0005 11.4119 33.5358 12.0664 31.5817 13.378C30.6615 13.994 29.8576 14.705 29.1548 15.5007V12.3231H22.3648V43.0909H30.1079V27.4773C30.1079 25.5599 30.3177 24.0198 30.7399 22.8622C31.162 21.7046 31.698 20.8242 32.3527 20.2261C33.0074 19.6281 33.7077 19.2251 34.4559 19.0146C35.2042 18.8067 35.9044 18.7015 36.5592 18.7015C38.1872 18.7015 39.4436 19.0711 40.3334 19.8129C41.2207 20.5547 41.8628 21.4762 42.2546 22.5773C42.6464 23.6784 42.8815 24.777 42.9549 25.8679C43.0282 26.9613 43.0661 27.8571 43.0661 28.5604V43.0909H50.8092V25.8268C50.8092 25.3135 50.7712 24.4972 50.6979 23.3756C50.6221 22.2539 50.4072 21.0167 50.0533 19.6589H50.0609Z" fill="white"/>
<path d="M68.4389 33.6323L61.2571 12.323H53.6227L64.6217 43.0908H72.2561L83.2552 12.323H75.6233L68.4389 33.6323Z" fill="white"/>
<path d="M107.245 13.7475C105.018 12.228 102.316 11.4683 99.1356 11.4683C96.1425 11.4683 93.4958 12.1562 91.1953 13.5345C88.8949 14.9129 87.09 16.8431 85.7805 19.3328C84.471 21.82 83.8163 24.7461 83.8163 28.1086C83.8163 31.1862 84.4837 33.9172 85.8235 36.2992C87.1607 38.6837 89.0137 40.5548 91.3799 41.9127C93.746 43.2705 96.4813 43.9507 99.5881 43.9507C102.505 43.9507 105.195 43.1704 107.655 41.6149C110.114 40.0569 111.914 37.8726 113.057 35.062L105.425 32.8392C104.864 34.0917 104.05 35.0517 102.983 35.7165C101.916 36.3813 100.635 36.7124 99.1381 36.7124C96.7619 36.7124 94.962 35.9295 93.7359 34.3612C92.8385 33.2139 92.2722 31.7175 92.0321 29.8745H113.307C113.626 26.1527 113.252 22.9135 112.185 20.1593C111.118 17.4052 109.472 15.2696 107.245 13.7501V13.7475ZM99.4718 18.1906C101.699 18.1906 103.302 18.8785 104.285 20.2569C104.932 21.1629 105.362 22.4515 105.584 24.1173H92.2318C92.5326 22.6927 93.0306 21.5197 93.7334 20.5982C94.9594 18.994 96.8706 18.1906 99.4718 18.1906Z" fill="white"/>
<path d="M144.729 19.6589C144.373 18.3011 143.779 16.9946 142.947 15.742C142.116 14.4894 140.95 13.4524 139.454 12.6362C137.957 11.82 136.021 11.4119 133.644 11.4119C130.669 11.4119 128.204 12.0664 126.25 13.378C125.33 13.994 124.526 14.705 123.823 15.5007V12.3231H117.033V43.0909H124.776V27.4773C124.776 25.5599 124.986 24.0198 125.408 22.8622C125.831 21.7046 126.366 20.8242 127.021 20.2261C127.676 19.6281 128.376 19.2251 129.124 19.0146C129.873 18.8067 130.573 18.7015 131.228 18.7015C132.856 18.7015 134.112 19.0711 135.002 19.8129C135.889 20.5547 136.531 21.4762 136.923 22.5773C137.315 23.6784 137.55 24.777 137.623 25.8679C137.697 26.9613 137.735 27.8571 137.735 28.5604V43.0909H145.478V25.8268C145.478 25.3135 145.44 24.4972 145.366 23.3756C145.291 22.2539 145.076 21.0167 144.722 19.6589H144.729Z" fill="white"/>
<path d="M160.527 3.77576H152.895V12.3231H147.733V18.3062H152.895V30.044C152.895 31.887 152.913 33.5348 152.95 34.9876C152.988 36.4404 153.38 37.8701 154.128 39.2767C154.953 40.7782 156.153 41.864 157.733 42.539C159.313 43.2141 161.111 43.5735 163.12 43.6222C165.13 43.6684 167.185 43.4939 169.278 43.096V36.6586C167.484 36.905 165.845 36.982 164.369 36.887C162.89 36.7921 161.816 36.2043 161.143 35.1211C160.787 34.5513 160.597 33.7864 160.567 32.8264C160.539 31.8664 160.524 30.7884 160.524 29.5923V18.3113H169.278V12.3282H160.524V3.77576H160.527Z" fill="white"/>
<path d="M199.583 20.4699C199.472 19.3303 199.116 18.1906 198.517 17.051C197.45 15.0001 195.88 13.5576 193.802 12.7208C191.726 11.8841 189.35 11.4683 186.676 11.4683C183.028 11.4683 180.146 12.2665 178.033 13.8605C175.919 15.457 174.478 17.5258 173.712 20.0721L180.614 22.2949C181.099 20.8883 181.951 19.9104 183.167 19.3611C184.383 18.8092 185.551 18.5346 186.673 18.5346C188.693 18.5346 190.134 18.9632 190.993 19.8154C191.668 20.4853 192.073 21.4581 192.219 22.7235C190.93 22.9186 189.707 23.1034 188.551 23.2779C186.587 23.5731 184.828 23.8811 183.276 24.2046C181.723 24.528 180.386 24.8976 179.264 25.316C177.636 25.9243 176.341 26.6789 175.378 27.5798C174.415 28.4833 173.717 29.5229 173.288 30.6985C172.858 31.8766 172.643 33.178 172.643 34.6025C172.643 36.312 173.03 37.8751 173.808 39.2894C174.585 40.7037 175.725 41.8357 177.231 42.6801C178.738 43.5246 180.576 43.9481 182.745 43.9481C185.364 43.9481 187.528 43.4887 189.241 42.5672C190.591 41.8408 191.868 40.7525 193.071 39.31V43.0934H199.75V24.2893C199.75 22.8827 199.695 21.6121 199.581 20.4725L199.583 20.4699ZM191.39 33.7478C191.185 34.1841 190.796 34.7257 190.225 35.3725C189.654 36.0194 188.888 36.5943 187.924 37.0974C186.961 37.6005 185.778 37.852 184.375 37.852C183.495 37.852 182.737 37.7186 182.103 37.4542C181.466 37.1872 180.975 36.8048 180.629 36.2991C180.283 35.7961 180.111 35.1929 180.111 34.4896C180.111 33.9762 180.219 33.5116 180.434 33.0933C180.649 32.6749 180.985 32.2899 181.445 31.9382C181.903 31.5866 182.507 31.2606 183.255 30.9551C183.91 30.7087 184.668 30.4803 185.528 30.2724C186.387 30.0645 187.52 29.8309 188.923 29.5742C189.825 29.41 190.905 29.22 192.164 29.0044C192.149 29.5434 192.121 30.1517 192.08 30.8294C192.015 31.9408 191.785 32.9136 191.393 33.7504L191.39 33.7478Z" fill="white"/>
<path d="M17.329 0C16.0802 1.6761 14.1034 2.76184 11.8737 2.76184C9.64408 2.76184 7.66724 1.6761 6.41591 0H0C1.70889 4.99493 6.37293 8.5807 11.8737 8.5807C17.3745 8.5807 22.0386 4.99493 23.7474 0H17.3315H17.329Z" fill="white"/>
</svg>
